# xmcd
#
# Track frame offsets:
#	182
#	37312
#	63850
#	100085
#	134155
#	168212
#	211742
#	242617
#	269917
#
# Disc length: 4064 seconds
# Revision: 0
# Processed by: cddbd v1.5.2PL0 Copyright (c) Steve Scherf et al.
# Submitted via: dBpowerAMP V12.0
#
DISCID=850fde09
DTITLE=Various Artist - Rock the House Volume 1
DYEAR=1900
DGENRE=House
TTITLE0=Pulse - Lover That You Are (Club Vocal Mix)
TTITLE1=Soul Solution - Find a Way (Soul Solution Mix)
TTITLE2=Instinct - Reachin' (BOP Intense Mix)
TTITLE3=Alliance - Reach (Take It to the Top) (Massive Vocal Mix)
TTITLE4=Darryl D'Bonneau - Revenge (BOP Down Under Mix)
TTITLE5=Taiste - Take Time to Tell Me (Moretta's Classic Mix)
TTITLE6=95 North - My Life (95 North Club Mix)
TTITLE7=Darryl D'Bonneau - Say You're Gonna Stay (Smack Mix)
TTITLE8=Taiste - Takin' My Love 2 U (Liquid Mix)
EXTD=
EXTT0=
EXTT1=
EXTT2=
EXTT3=
EXTT4=
EXTT5=
EXTT6=
EXTT7=
EXTT8=
PLAYORDER=
